<svg xmlns="http://www.w3.org/2000/svg" width="40" height="40" viewBox="0 0 180 180">
  <mask id="curseur-case-invert">
    <rect width="180" height="180" fill="#ffffff"/>
    <path fill="#000000" d="M-8.43 93.22V-18.6H89.76 187.96V93.22 205.04H89.76-8.43ZM102.47 166.54c5.58-5.79 10.14-10.98 10.14-11.54 0-1.3-2.87-3.91-3.89-3.54-.43.16-4.82 4.2-9.75 9l-8.98 8.72-8.94-8.92c-4.92-4.9-9.32-8.92-9.79-8.92-.47 0-1.71.91-2.76 2.03l-1.91 2.03 11.53 11.55c9.23 9.24 11.8 11.41 12.87 10.83.74-.39 5.9-5.45 11.48-11.24zM92.42 149.93c-.2-1.75-.67-2.2-2.26-2.2-1.59 0-2.06.46-2.26 2.2-.23 1.99 0 2.2 2.26 2.2 2.27 0 2.49-.21 2.26-2.2zm.02-7.31c.34-2.44-.86-3.62-2.99-2.94-1.65.52-2.35 3.5-1.12 4.74 1.22 1.22 3.84.07 4.11-1.8zm-1.07-8.52c0-2.81-1.58-3.49-2.81-1.2-.69 1.29-.68 1.99.07 2.88 1.43 1.72 2.74.92 2.74-1.68zM27.63 108.51c0-.47-3.95-4.9-8.76-9.83l-8.76-8.97 8.74-9.07c4.8-4.99 8.75-9.45 8.76-9.93 0-.47-.78-1.61-1.78-2.53L24.03 66.52 12.01 78.04 0 89.57l11.8 11.79 11.82 11.79 2.01-1.89c1.1-1.04 2-2.27 2-2.75zm139.39-6.55c6.22-6 11.31-11.32 11.3-11.82 0-.81-14.1-15.6-20.52-21.54l-2.36-2.18-2.18 1.88c-1.2 1.03-2.18 2.2-2.18 2.6 0 .4 3.97 4.68 8.82 9.51 4.85 4.83 8.82 9.15 8.82 9.6 0 .44-2.8 3.54-6.21 6.88-3.42 3.34-7.45 7.4-8.97 9.02l-2.75 2.94 1.89 2.01c1.04 1.11 2.15 2.01 2.46 2.01.31 0 5.66-4.91 11.88-10.9zM152.54 89.36c-.19-1.35-.79-1.75-2.64-1.75-2.84 0-3.81 2.5-1.59 4.12 1.95 1.43 4.57-.04 4.23-2.37zM32.05 89.61c0-1.59-.45-2.06-2.21-2.26-2.37-.27-3.55 1.27-2.69 3.51.31.82 1.25 1.17 2.69 1 1.75-.2 2.21-.67 2.21-2.25zm8.02 0c0-1.66-.43-2.05-2.5-2.25-2.66-.26-3.87 1.17-2.98 3.49.32.84 1.29 1.17 2.98 1 2.07-.2 2.5-.59 2.5-2.24zm51.73 1.16c.85-1.03.8-1.47-.26-2.54-1.07-1.07-1.51-1.11-2.54-.26-1.5 1.24-1.62 2.96-.24 3.51 1.64.66 1.96.59 3.04-.71zm52.87-1.16c0-2.14-.26-2.4-2.43-2.4-1.42 0-2.62.5-2.89 1.2-.82 2.14.36 3.61 2.89 3.61 2.17 0 2.43-.26 2.43-2.41zm-97.17.66c.69-.69.71-1.23.06-2-1.15-1.39-2.66-1.35-3.86.11-1.89 2.28 1.65 4.05 3.8 1.9zm88.36-.61c0-2.16-1.52-2.88-2.98-1.42-1.46 1.46-.74 2.98 1.42 2.98 1.01 0 1.56-.55 1.56-1.56zM92.36 45.53c.32-1.85-1.09-3.5-2.52-2.95-.72.28-1.28 1.41-1.28 2.58 0 1.7.33 2.04 1.8 1.83.99-.14 1.89-.8 2-1.46zm.18-6.78c1.61-1.94.24-4.58-2.23-4.29-2.16.25-3.1 2.05-2.24 4.3.57 1.49 3.23 1.49 4.47-.01zm.32-8.05c.82-2.14-.36-3.71-2.6-3.45-1.62.19-2.16.75-2.36 2.45-.23 1.97 0 2.2 2.12 2.2 1.37 0 2.57-.51 2.83-1.2zm19.75-6.47c0-.54-5.04-6.16-11.19-12.49L90.22.23 78.4 12.03 66.58 23.82l1.91 2.03c1.05 1.12 2.29 2.03 2.76 2.03.47 0 4.88-4.02 9.81-8.93l8.96-8.93 9.25 9.51 9.25 9.51 2.05-1.92c1.13-1.06 2.05-2.36 2.05-2.9z"/>
  </mask>
  <rect width="180" height="180" fill="#ffffff" mask="url(#curseur-case-invert)"/>
</svg>
