<svg viewBox="0 0 300 460" xmlns="http://www.w3.org/2000/svg">

  <style>
    path {
      fill: #D9F7FF;
    }
  </style>

  <!-- HEAD -->
  <path id="head"
        d="
          M150 24
          Q176 24 182 50
          L178 84
          Q150 106 122 84
          L118 50
          Q124 24 150 24
          Z
        "/>

  <!-- BODY -->
  <path id="body"
        d="
          M120 118
          Q150 96 180 118
          L194 214
          Q192 248 168 272
          L132 272
          Q108 248 106 214
          Z
        "/>

  <!-- LEFT ARM -->
  <path id="left-arm"
        d="
          M58 126
          L92 138
          L84 258
          L50 246
          L42 154
          Z
        "/>

  <!-- RIGHT ARM -->
  <path id="right-arm"
        d="
          M208 138
          L242 126
          L258 154
          L250 246
          L216 258
          Z
        "/>

  <!-- LEFT LEG -->
  <path id="left-leg"
        d="
          M102 282
          L124 282
          L128 390
          L118 426
          L88 426
          L80 394
          L86 314
          Z
        "/>

  <!-- RIGHT LEG -->
  <path id="right-leg"
        d="
          M176 282
          L198 282
          L214 314
          L220 394
          L212 426
          L182 426
          L172 390
          Z
        "/>

</svg>