<svg xmlns="http://www.w3.org/2000/svg" viewBox="0 0 24 24" width="24" height="24">
  <polygon points="6.5,2.6 17.5,2.6 22.6,12 17.5,21.4 6.5,21.4 1.4,12" fill="#0a0d12" stroke="#05070b" stroke-width="3" stroke-linejoin="round"/>
  <polygon points="6.5,2.6 17.5,2.6 22.6,12 17.5,21.4 6.5,21.4 1.4,12" fill="none" stroke="#38a8c8" stroke-width="1.6" stroke-linejoin="round"/>
  <g transform="translate(12 12) scale(0.6) translate(-12 -12)" fill="none" stroke="#38a8c8" stroke-width="2" stroke-linecap="round" stroke-linejoin="round">
    <path d="M10 3 h4 M11 3 v3.5 L7.5 14 a1.6 1.6 0 0 0 1.5 2.3 h6 a1.6 1.6 0 0 0 1.5-2.3 L13 6.5 V3"/>
    <circle cx="10.6" cy="12.4" r="0.9" fill="#38a8c8" stroke="none"/>
    <circle cx="13.4" cy="12.4" r="0.9" fill="#38a8c8" stroke="none"/>
    <path d="M11.2 14.6 h1.6"/>
  </g>
</svg>
