<svg xmlns="http://www.w3.org/2000/svg" viewBox="0 0 24 24" width="24" height="24">
  <polygon points="6.5,2.6 17.5,2.6 22.6,12 17.5,21.4 6.5,21.4 1.4,12" fill="#0a0d12" stroke="#05070b" stroke-width="3" stroke-linejoin="round"/>
  <polygon points="6.5,2.6 17.5,2.6 22.6,12 17.5,21.4 6.5,21.4 1.4,12" fill="none" stroke="#38a8c8" stroke-width="1.6" stroke-linejoin="round"/>
  <g transform="translate(12 12) scale(0.6) translate(-12 -12)">
    <path d="M5.83 3.51 A10.5 10.5 0 0 1 18.17 3.51 L14.12 9.09 A3.6 3.6 0 0 0 9.88 9.09 Z" fill="#38a8c8" stroke="none"/>
    <path d="M22.44 10.90 A10.5 10.5 0 0 1 16.27 21.59 L13.46 15.29 A3.6 3.6 0 0 0 15.58 11.62 Z" fill="#38a8c8" stroke="none"/>
    <path d="M7.73 21.59 A10.5 10.5 0 0 1 1.56 10.90 L8.42 11.62 A3.6 3.6 0 0 0 10.54 15.29 Z" fill="#38a8c8" stroke="none"/>
    <circle cx="12" cy="12" r="2.8" fill="#38a8c8" stroke="none"/>
  </g>
</svg>
