<svg xmlns="http://www.w3.org/2000/svg" viewBox="0 0 24 24" width="24" height="24">
  <polygon points="6.5,2.6 17.5,2.6 22.6,12 17.5,21.4 6.5,21.4 1.4,12" fill="#0a0d12" stroke="#05070b" stroke-width="3" stroke-linejoin="round"></polygon>
  
  <polygon points="6.5,2.6 17.5,2.6 22.6,12 17.5,21.4 6.5,21.4 1.4,12" fill="none" stroke="#38a8c8" stroke-width="1.6" stroke-linejoin="round"></polygon>
  
  <g transform="translate(12, 12) scale(0.26) translate(-27, -29)" fill="#38a8c8">
    <circle cx="10.978" cy="5.955" r="5.955"></circle>
    <path d="M52.909,30.852c-2.402-1.771-5.021-3.176-7.844-4.139c-0.943-0.322-1.934-0.313-2.77,0.048&#xA;            c-0.232-0.046-0.479-0.071-0.738-0.07c-2.885,0.012-5.697,0.718-8.273,1.95c-0.203-0.446-0.449-0.883-0.745-1.297&#xA;            c-1.128-1.581-2.257-3.163-3.386-4.744c2.852-2.135,5.064-4.997,6.477-8.426c1.676-4.07-4.744-6.334-6.408-2.295&#xA;            c-0.898,2.178-2.287,3.866-4.029,5.173c-0.617-0.864-1.233-1.728-1.85-2.592c3.6-2.669,6.996-5.576,10.106-8.842&#xA;            c2.937-3.081-2.188-7.242-5.111-4.175c-3.886,4.08-8.339,7.469-13.012,10.593c-0.357,0.19-0.693,0.413-0.99,0.672&#xA;            c-2.544,2.217-2.402,5.595-0.569,8.163c3.347,4.689,6.696,9.379,10.043,14.067c0.581,0.813,1.395,1.36,2.304,1.668&#xA;            c4.545,5.021,6.239,10.776,5.898,17.964c-0.209,4.38,6.586,4.775,6.795,0.391c0.34-7.173-1.057-13.627-4.704-19.178&#xA;            c2.409-1.652,5.043-2.505,8.036-2.518c0.423-0.004,0.785-0.084,1.113-0.202c1.986,0.752,3.844,1.688,5.484,2.899&#xA;            c1.443,1.062,3.464,0.979,4.643-0.47C54.469,34.154,54.36,31.92,52.909,30.852z"></path>
    <path d="M15.654,56.414c-2.107-0.417-4.193-0.938-6.194-1.646c-0.993-0.368-1.973-0.779-2.85-1.345&#xA;            c-0.865-0.555-1.698-1.283-1.896-2.396c-0.09,0.551,0.05,1.147,0.326,1.66c0.271,0.521,0.663,0.96,1.075,1.362&#xA;            c0.851,0.783,1.83,1.39,2.843,1.887c2.031,1.006,4.198,1.617,6.372,2.08c2.183,0.429,4.39,0.691,6.603,0.757&#xA;            c2.21,0.073,4.423-0.013,6.613-0.354c-2.188-0.343-4.351-0.608-6.5-0.92C19.897,57.179,17.76,56.854,15.654,56.414z"></path>
  </g>
</svg>