<svg xmlns="http://www.w3.org/2000/svg" viewBox="0 0 24 24" width="24" height="24">
  <polygon points="6.5,2.6 17.5,2.6 22.6,12 17.5,21.4 6.5,21.4 1.4,12" fill="#0a0d12" stroke="#05070b" stroke-width="3" stroke-linejoin="round"></polygon>
  <polygon points="6.5,2.6 17.5,2.6 22.6,12 17.5,21.4 6.5,21.4 1.4,12" fill="none" stroke="#d84838" stroke-width="1.6" stroke-linejoin="round"></polygon>
  <g transform="translate(12 12) scale(0.6) translate(-12 -12)" fill="none" stroke="#d84838" stroke-width="2" stroke-linecap="round" stroke-linejoin="round">
    <path d="M12 2.5 c2.6 3.6 3.6 5.2 3.6 7.2 a3.6 3.6 0 0 1-7.2 0 c0-2 1-3.6 3.6-7.2z"></path>
    <path d="M3 16.5 h4.5 l1.2 2.4 1.3-2.4 1.4 0 1.2 2.4 1.3-2.4 h4.6"></path>
    <path d="M7 20.5 l1 0 M15.5 20.5 l1.4 0" opacity="0.7"></path>
  </g>
</svg>