<svg xmlns="http://www.w3.org/2000/svg" viewBox="0 0 24 24" width="24" height="24">
  <polygon points="6.5,2.6 17.5,2.6 22.6,12 17.5,21.4 6.5,21.4 1.4,12" fill="#0a0d12" stroke="#05070b" stroke-width="3" stroke-linejoin="round"></polygon>
  
  <polygon points="6.5,2.6 17.5,2.6 22.6,12 17.5,21.4 6.5,21.4 1.4,12" fill="none" stroke="#38a8c8" stroke-width="1.6" stroke-linejoin="round"></polygon>
  
  <g transform="translate(12 12) scale(0.6) translate(-12 -12)" stroke="#38a8c8" stroke-width="2" stroke-linecap="round" stroke-linejoin="round" fill="none">
    <path d="M12 2v20M2 12h20M4.93 4.93l14.14 14.14M19.07 4.93L4.93 19.07"></path>
    
    <path d="M10 4l2-2 2 2M10 20l2 2 2-2M4 10l-2 2 2 2M20 10l2 2-2 2"></path>
    <path d="M6.41 4.99l-1.48-.06.06 1.48M17.59 4.99l1.48-.06-.06 1.48M6.41 19.01l-1.48.06.06-1.48M17.59 19.01l1.48.06-.06-1.48"></path>
  </g>
</svg>