<svg viewBox="0 0 300 460" xmlns="http://www.w3.org/2000/svg">

  <style>
    path{
      fill:#D9F7FF;
    }
  </style>

  <!-- HEAD -->
  <path id="head"
        d="
          M150 24

          Q170 24 176 42

          L174 78

          Q170 96 150 104

          Q130 96 126 78

          L124 42

          Q130 24 150 24
          Z
        "/>

  <!-- BODY -->
  <path id="body"
        d="
          M124 120

          Q136 108 148 108

          L152 108

          Q164 108 176 120

          L184 214

          Q182 240 168 260

          L132 260

          Q118 240 116 214
          Z
        "/>

  <!-- LEFT ARM -->
  <path id="left-arm"
        d="
          M76 132

          Q86 120 96 124

          L108 144

          L100 246

          L84 258

          L68 242

          L60 150
          Z
        "/>

  <!-- RIGHT ARM -->
  <path id="right-arm"
        d="
          M224 132

          Q214 120 204 124

          L192 144

          L200 246

          L216 258

          L232 242

          L240 150
          Z
        "/>

  <!-- LEFT LEG -->
  <path id="left-leg"
        d="
          M120 280

          L138 280

          L144 388

          L136 420

          L114 420

          L102 392

          L106 306
          Z
        "/>

  <!-- RIGHT LEG -->
  <path id="right-leg"
        d="
          M162 280

          L180 280

          L194 306

          L198 392

          L186 420

          L164 420

          L156 388
          Z
        "/>

</svg>