<svg xmlns="http://www.w3.org/2000/svg" viewBox="0 0 24 24" width="24" height="24">
  <polygon points="6.5,2.6 17.5,2.6 22.6,12 17.5,21.4 6.5,21.4 1.4,12" fill="#0a0d12" stroke="#05070b" stroke-width="3" stroke-linejoin="round"></polygon>
  <polygon points="6.5,2.6 17.5,2.6 22.6,12 17.5,21.4 6.5,21.4 1.4,12" fill="none" stroke="#9858c8" stroke-width="1.6" stroke-linejoin="round"></polygon>
  <g transform="translate(12 12) scale(0.6) translate(-12 -12)" fill="none" stroke="#9858c8" stroke-width="2" stroke-linecap="round" stroke-linejoin="round">
    <path d="M3 12 c3-4 6-6 9-6 s6 2 9 6 c-3 4-6 6-9 6 s-6-2-9-6z"></path>
    <circle cx="12" cy="12" r="2.5"></circle>
    <path d="M4 4 l16 16" stroke="#9858c8"></path>
  </g>
</svg>